Coordinates
version=1
nRows=16
nColumns=40
inDegrees=yes

Units are S.I. units (second, meters, Newtons, ...)
If the header above contains a line with 'inDegrees', this indicates whether rotational values are in degrees (yes) or radians (no).

endheader
time	pelvis_tilt	pelvis_list	pelvis_rotation	pelvis_tx	pelvis_ty	pelvis_tz	hip_flexion_r	hip_adduction_r	hip_rotation_r	knee_angle_r	knee_angle_r_beta	ankle_angle_r	subtalar_angle_r	mtp_angle_r	hip_flexion_l	hip_adduction_l	hip_rotation_l	knee_angle_l	knee_angle_l_beta	ankle_angle_l	subtalar_angle_l	mtp_angle_l	lumbar_extension	lumbar_bending	lumbar_rotation	arm_flex_r	arm_add_r	arm_rot_r	elbow_flex_r	pro_sup_r	wrist_flex_r	wrist_dev_r	arm_flex_l	arm_add_l	arm_rot_l	elbow_flex_l	pro_sup_l	wrist_flex_l	wrist_dev_l
      0.14500000	    -18.12908069	      5.82396377	     11.41708365	     -2.41556316	      0.93797859	      0.36843256	     18.47671578	     -9.23751748	    -10.55487913	    109.15236612	      1.90506818	    -13.70319034	      0.00000000	      0.00000000	     40.46919401	      7.46349658	     -7.43009242	     40.78934848	      0.71190843	     13.62729065	      0.00000000	      0.00000000	    -23.08475935	     -9.23667882	     -6.59815083	    -12.82822154	    -15.18735112	    -16.00904286	     87.06604696	     77.85804570	      0.00000000	      0.00000000	     -5.28217637	    -25.11408832	     -4.09150319	     99.65345009	     85.23718204	      0.00000000	      0.00000000
      0.15000000	    -18.29807424	      5.38096219	     12.66310808	     -2.38868994	      0.93546518	      0.36603310	     21.11742201	     -9.75597004	    -11.22474360	    111.87452312	      1.95257878	    -12.84287778	      0.00000000	      0.00000000	     39.18921501	      7.93151759	     -6.02007952	     41.69871907	      0.72777994	     15.91601870	      0.00000000	      0.00000000	    -22.69392308	     -8.20231471	     -7.80989969	    -15.31027553	    -15.11108733	    -16.63765037	     86.08051667	     85.23315442	      0.00000000	      0.00000000	     -1.65301278	    -24.82187169	     -2.30587061	    100.41239917	     80.22711871	      0.00000000	      0.00000000
      0.15500000	    -18.48572343	      4.92157512	     13.89139150	     -2.36196136	      0.93329113	      0.36359151	     23.87787461	    -10.34732602	    -11.77856138	    114.31281252	      1.99513496	    -12.02837195	      0.00000000	      0.00000000	     37.86142210	      8.29101121	     -4.59589336	     42.47696493	      0.74136289	     18.03027147	      0.00000000	      0.00000000	    -22.25021017	     -7.15655912	     -9.13261446	    -17.76302976	    -15.17118033	    -16.74805537	     85.50200119	     87.39330503	      0.00000000	      0.00000000	      1.82536068	    -24.49481227	     -0.45455781	    101.57387503	     68.76156443	      0.00000000	      0.00000000
      0.16000000	    -18.68164993	      4.43123264	     15.10419088	     -2.33530095	      0.93149121	      0.36115579	     26.73199773	    -10.98699201	    -12.23803599	    116.43602923	      2.03219208	    -11.25523214	      0.00000000	      0.00000000	     36.46741717	      8.52091375	     -3.12594540	     43.08105271	      0.75190621	     19.91777711	      0.00000000	      0.00000000	    -21.76767212	     -6.08869996	    -10.57579840	    -20.11874104	    -15.32447250	    -16.63075704	     85.11354174	     88.23632995	      0.00000000	      0.00000000	      5.16560995	    -24.14135992	      1.04109684	    102.95685614	     56.48924887	      0.00000000	      0.00000000
      0.16500000	    -18.86875139	      3.89394525	     16.30503900	     -2.30862732	      0.93007937	      0.35877126	     29.64128370	    -11.64932836	    -12.63620238	    118.21864105	      2.06330452	    -10.51257946	      0.00000000	      0.00000000	     34.99224952	      8.59896632	     -1.58862905	     43.48433292	      0.75894478	     21.53903341	      0.00000000	      0.00000000	    -21.25707831	     -4.98260853	    -12.12683087	    -22.36287126	    -15.55700474	    -16.37857519	     84.85245390	     88.65584495	      0.00000000	      0.00000000	      8.37878027	    -23.78509553	      1.99772371	    104.19066383	     48.71750175	      0.00000000	      0.00000000
      0.17000000	    -19.02765920	      3.29486957	     17.49289704	     -2.28186589	      0.92904863	      0.35647719	     32.56309334	    -12.30970649	    -13.00733100	    119.64416458	      2.08818460	     -9.78510510	      0.00000000	      0.00000000	     33.43035341	      8.50026867	      0.01964749	     43.68046811	      0.76236799	     22.86527638	      0.00000000	      0.00000000	    -20.72318222	     -3.82382218	    -13.74350572	    -24.51843414	    -15.86125700	    -16.01935751	     84.70826793	     88.43471166	      0.00000000	      0.00000000	     11.45325210	    -23.46978237	      2.57894006	    105.28583321	     44.40536122	      0.00000000	      0.00000000
      0.17500000	    -19.14097687	      2.62369387	     18.65803289	     -2.25495281	      0.92837954	      0.35430335	     35.45752593	    -12.94624633	    -13.37860231	    120.70357855	      2.10667486	     -9.05933540	      0.00000000	      0.00000000	     31.78588978	      8.19946203	      1.68219105	     43.67902242	      0.76234276	     23.87656326	      0.00000000	      0.00000000	    -20.17177872	     -2.60231008	    -15.37528142	    -26.59609831	    -16.20745524	    -15.72139135	     84.62502484	     89.06421483	      0.00000000	      0.00000000	     14.38613864	    -23.22223243	      2.91503590	    106.35325012	     41.72177067	      0.00000000	      0.00000000
      0.18000000	    -19.20126949	      1.88126619	     19.77867935	     -2.22783991	      0.92803721	      0.35227136	     38.29928656	    -13.54431722	    -13.75647364	    121.40209916	      2.11886635	     -8.31913942	      0.00000000	      0.00000000	     30.07452863	      7.67934252	      3.35984631	     43.49893723	      0.75919968	     24.55849950	      0.00000000	      0.00000000	    -19.60160814	     -1.32233567	    -16.97757510	    -28.62995554	    -16.60149105	    -15.40805184	     84.63785749	     89.17561496	      0.00000000	      0.00000000	     17.17585322	    -23.05260476	      3.06099752	    107.42979840	     40.02466283	      0.00000000	      0.00000000
      0.18500000	    -19.20881258	      1.07902988	     20.82382082	     -2.20048332	      0.92798712	      0.35039539	     41.07286690	    -14.09263701	    -14.12598843	    121.75030069	      2.12494361	     -7.55585390	      0.00000000	      0.00000000	     28.31417770	      6.93402543	      4.99776164	     43.16019010	      0.75328742	     24.90015784	      0.00000000	      0.00000000	    -19.01192089	     -0.00103696	    -18.50055451	    -30.63582899	    -17.02224585	    -15.15570214	     84.72671647	     89.25713503	      0.00000000	      0.00000000	     19.82510882	    -22.95797015	      3.06012549	    108.53956648	     38.82953690	      0.00000000	      0.00000000
      0.19000000	    -19.17000576	      0.23723967	     21.75729435	     -2.17283749	      0.92820223	      0.34868391	     43.76948725	    -14.57965276	    -14.45869733	    121.76108141	      2.12513177	     -6.76796766	      0.00000000	      0.00000000	     26.51866001	      5.97122756	      6.53342261	     42.67724928	      0.74485852	     24.89001946	      0.00000000	      0.00000000	    -18.40335568	      1.33451192	    -19.89965571	    -32.62796922	    -17.45154844	    -14.99643045	     84.88431946	     89.31892885	      0.00000000	      0.00000000	     22.33244005	    -22.92808900	      2.93782126	    109.68518625	     37.94546349	      0.00000000	      0.00000000
      0.19500000	    -19.09603603	     -0.61921786	     22.54302420	     -2.14485604	      0.92866248	      0.34714017	     46.38494221	    -14.99158065	    -14.72064823	    121.44911882	      2.11968700	     -5.95924256	      0.00000000	      0.00000000	     24.69529018	      4.81211777	      7.90615068	     42.05628013	      0.73402056	     24.51393357	      0.00000000	      0.00000000	    -17.77833722	      2.65277813	    -21.13682904	    -34.61536412	    -17.86935222	    -14.95639875	     85.10230600	     89.36686736	      0.00000000	      0.00000000	     24.69302946	    -22.94817212	      2.71081501	    110.86326284	     37.26788258	      0.00000000	      0.00000000
      0.20000000	    -19.00113886	     -1.46610567	     23.15038826	     -2.11649625	      0.92935174	      0.34576124	     48.91743684	    -15.31216991	    -14.88140810	    120.82991047	      2.10887977	     -5.13893508	      0.00000000	      0.00000000	     22.84510655	      3.48892406	      9.06587793	     41.29530493	      0.72073904	     23.75557503	      0.00000000	      0.00000000	    -17.14004653	      3.92463197	    -22.18317824	    -36.60248906	    -18.25692577	    -15.05516099	     85.37125630	     89.40467137	      0.00000000	      0.00000000	     26.89894230	    -23.00254957	      2.39119179	    112.07181255	     36.70042480	      0.00000000	      0.00000000
      0.20500000	    -18.90083602	     -2.28469139	     23.55851735	     -2.08772477	      0.93025305	      0.34453672	     51.36589910	    -15.52420944	    -14.92156697	    119.91891927	      2.09297998	     -4.32253403	      0.00000000	      0.00000000	     20.96566943	      2.04087828	      9.97875944	     40.38783413	      0.70490068	     22.59780530	      0.00000000	      0.00000000	    -16.49043364	      5.12902133	    -23.02078897	    -38.59024332	    -18.59948558	    -15.30409988	     85.68038622	     89.43454739	      0.00000000	      0.00000000	     28.94098451	    -23.07553751	      1.98654319	    113.30369251	     36.24313278	      0.00000000	      0.00000000
      0.21000000	    -18.80924326	     -3.06552118	     23.75796181	     -2.05852114	      0.93134668	      0.34345153	     53.72731519	    -15.61038380	    -14.83602471	    118.72912625	      2.07221417	     -3.53342854	      0.00000000	      0.00000000	     19.05427639	      0.50776613	     10.62818074	     39.32825126	      0.68640747	     21.02782313	      0.00000000	      0.00000000	    -15.82955864	      6.25750633	    -23.64302478	    -40.57688005	    -18.88787990	    -15.70722186	     86.01966509	     89.45844150	      0.00000000	      0.00000000	     30.81053179	    -23.15327604	      1.49666918	    114.52495503	     36.30739302	      0.00000000	      0.00000000
      0.21500000	    -18.73943915	     -3.80528121	     23.74906015	     -2.02888046	      0.93260267	      0.34248993	     55.99926423	    -15.55790011	    -14.63041676	    117.27793568	      2.04688612	     -2.78866810	      0.00000000	      0.00000000	     17.11050005	     -1.07046331	     11.01152329	     38.11580627	      0.66524632	     19.04075932	      0.00000000	      0.00000000	    -15.15460101	      7.30902887	    -24.05080093	    -42.56201586	    -19.11717846	    -16.26378106	     86.38180395	     89.47745031	      0.00000000	      0.00000000	     32.49645259	    -23.22798380	      0.95047901	    115.83339765	     35.52980062	      0.00000000	      0.00000000
      0.22000000	    -18.69816542	     -4.50860268	     23.54160818	     -1.99880975	      0.93399296	      0.34163785	     58.17318168	    -15.35641130	    -14.32653306	    115.57887398	      2.01723190	     -2.09681606	      0.00000000	      0.00000000	     15.13381950	     -2.66154872	     11.13977791	     36.75518424	      0.64149898	     16.64283934	      0.00000000	      0.00000000	    -14.46487746	      8.29411772	    -24.25504160	    -44.54157325	    -19.28767821	    -16.96652782	     86.76019572	     89.49282763	      0.00000000	      0.00000000	     34.00026239	    -23.29132227	      0.33113870	    117.10391221	     35.60276837	      0.00000000	      0.00000000
